<?xml version="1.0" encoding="utf-8"?>
<!-- Generator: Adobe Illustrator 22.1.0, SVG Export Plug-In . SVG Version: 6.00 Build 0)  -->
<svg version="1.1" id="Layer_1" xmlns="http://www.w3.org/2000/svg" xmlns:xlink="http://www.w3.org/1999/xlink" x="0px" y="0px"
	 viewBox="0 0 1024 1024" style="enable-background:new 0 0 1024 1024;" xml:space="preserve">
<g>
	<g>
		<polygon points="-57.4,1076.5 -63.4,1515.7 -69.4,1076.5 		"/>
	</g>
	<g>
		<polygon points="-28.6,1076.5 -34.6,1407.5 -40.6,1076.5 		"/>
	</g>
	<g>
		<polygon points="0.2,1076.5 -5.8,1390.7 -11.8,1076.5 		"/>
	</g>
	<g>
		<polygon points="29,1076.5 23,1468.8 17,1076.5 		"/>
	</g>
	<g>
		<polygon points="57.8,1076.5 51.8,1410.6 45.8,1076.5 		"/>
	</g>
	<g>
		<polygon points="86.6,1076.5 80.6,1470 74.6,1076.5 		"/>
	</g>
	<g>
		<polygon points="115.4,1076.5 109.4,1467 103.4,1076.5 		"/>
	</g>
	<g>
		<polygon points="144.2,1076.5 138.2,1518.4 132.2,1076.5 		"/>
	</g>
	<g>
		<polygon points="173,1076.5 167,1472.7 161,1076.5 		"/>
	</g>
	<g>
		<polygon points="201.8,1076.5 195.8,1419.8 189.8,1076.5 		"/>
	</g>
	<g>
		<polygon points="230.6,1076.5 224.6,1334 218.6,1076.5 		"/>
	</g>
</g>
<g>
	<g>
		<polygon points="399.1,1076.5 393.1,1415.1 387.1,1076.5 		"/>
	</g>
	<g>
		<polygon points="427.9,1076.5 421.9,1382.2 415.9,1076.5 		"/>
	</g>
	<g>
		<polygon points="456.7,1076.5 450.7,1475.6 444.7,1076.5 		"/>
	</g>
	<g>
		<polygon points="485.5,1076.5 479.5,1426 473.5,1076.5 		"/>
	</g>
	<g>
		<polygon points="514.3,1076.5 508.3,1462 502.3,1076.5 		"/>
	</g>
	<g>
		<polygon points="543.1,1076.5 537.1,1484.2 531.1,1076.5 		"/>
	</g>
	<g>
		<polygon points="571.9,1076.5 565.9,1350.1 559.9,1076.5 		"/>
	</g>
	<g>
		<polygon points="600.7,1076.5 594.7,1462.6 588.7,1076.5 		"/>
	</g>
	<g>
		<polygon points="629.5,1076.5 623.5,1433.4 617.5,1076.5 		"/>
	</g>
	<g>
		<polygon points="658.3,1076.5 652.3,1396.7 646.3,1076.5 		"/>
	</g>
	<g>
		<polygon points="687.1,1076.5 681.1,1431 675.1,1076.5 		"/>
	</g>
</g>
<g>
	<g>
		<polygon points="789.2,1076.5 783.2,1436.7 777.2,1076.5 		"/>
	</g>
	<g>
		<polygon points="818,1076.5 812,1522.2 806,1076.5 		"/>
	</g>
	<g>
		<polygon points="846.8,1076.5 840.8,1401.8 834.8,1076.5 		"/>
	</g>
	<g>
		<polygon points="875.6,1076.5 869.6,1399.8 863.6,1076.5 		"/>
	</g>
	<g>
		<polygon points="904.4,1076.5 898.4,1362.2 892.4,1076.5 		"/>
	</g>
	<g>
		<polygon points="933.2,1076.5 927.2,1504 921.2,1076.5 		"/>
	</g>
	<g>
		<polygon points="962,1076.5 956,1498.7 950,1076.5 		"/>
	</g>
	<g>
		<polygon points="990.8,1076.5 984.8,1493.7 978.8,1076.5 		"/>
	</g>
	<g>
		<polygon points="1019.6,1076.5 1013.6,1425.8 1007.6,1076.5 		"/>
	</g>
	<g>
		<polygon points="1048.4,1076.5 1042.4,1513.6 1036.4,1076.5 		"/>
	</g>
	<g>
		<polygon points="1077.2,1076.5 1071.2,1381.4 1065.2,1076.5 		"/>
	</g>
</g>
<g>
	<g>
		<g>
			<g>
				<g>
					<path d="M1246.6,528.7c-120-5.5-240-9.6-360.1-12.4c120.1-0.1,240.2-1.5,360.3-4.3L1246.6,528.7z"/>
				</g>
				<g>
					<path d="M1244.7,568.8c-147.9-14.2-296-26.6-444.2-37.4c148.3,8.6,296.7,15.5,445.2,20.7L1244.7,568.8z"/>
				</g>
				<g>
					<path d="M1240.5,608.8c-107.1-17-214.4-32.7-321.9-47.2c107.8,11.4,215.8,21.6,323.9,30.6l-1,8.3
						C1241.2,603.3,1240.9,606.1,1240.5,608.8z"/>
				</g>
				<g>
					<path d="M1234.1,648.6c-105.4-22.7-211-44.2-316.8-64.5c106.4,17.2,213,33.2,319.7,47.9l-1.4,8.3
						C1235.1,643.1,1234.6,645.9,1234.1,648.6z"/>
				</g>
				<g>
					<path d="M1225.5,688.1c-91.8-25.5-183.9-49.9-276.2-73.3c93.2,20,186.4,39,280,56.9C1228.2,677.2,1226.8,682.6,1225.5,688.1z"
						/>
				</g>
				<g>
					<path d="M1214.8,727c-135.5-44.3-271.4-87.1-407.8-128.3c137.1,39,274.6,76.4,412.5,112.2C1218,716.3,1216.4,721.6,1214.8,727z
						"/>
				</g>
				<g>
					<path d="M1201.9,765.3C1070.8,714.2,939,664.5,806.8,616.4c133.1,45.9,266.7,90.2,400.8,133
						C1205.7,754.7,1203.8,760,1201.9,765.3z"/>
				</g>
				<g>
					<path d="M1186.9,802.8C1060.4,745.2,933.2,689,805.3,634.3c128.8,52.5,258.2,103.5,388.2,153
						C1191.3,792.5,1189.2,797.7,1186.9,802.8z"/>
				</g>
				<g>
					<path d="M1169.9,839.4C1067,785,963.4,731.7,859.3,679.7c105.5,49.4,211.4,97.6,318,144.6c-1.2,2.5-2.4,5.1-3.6,7.6
						L1169.9,839.4z"/>
				</g>
				<g>
					<path d="M1151,875c-125.3-74.5-251.4-147.5-378.3-219.1c128,69.6,256.9,137.8,386.4,204.4C1156.5,865.2,1153.7,870.1,1151,875z
						"/>
				</g>
				<g>
					<path d="M1130.1,909.5c-83.9-57.4-168.5-113.8-253.7-169.2c86.9,52.7,174.5,104.3,262.7,155
						C1136.1,900,1133.1,904.8,1130.1,909.5z"/>
				</g>
			</g>
			<g>
				<g>
					<path d="M1120.9,923.5c-97.9-69.6-196.6-138.1-296-205.5c101,65,202.7,128.8,305.2,191.5C1127.1,914.2,1124,918.8,1120.9,923.5
						z"/>
				</g>
				<g>
					<path d="M1097.4,956.2C980.8,864.1,863.2,773.4,744.5,684c120,87.6,240.9,173.9,362.9,258.7
						C1104.1,947.2,1100.8,951.8,1097.4,956.2z"/>
				</g>
				<g>
					<path d="M1072.2,987.5c-80.8-72.3-162.4-143.7-244.9-214.2c84.5,68.1,169.6,135.1,255.6,201.3
						C1079.4,979,1075.8,983.3,1072.2,987.5z"/>
				</g>
				<g>
					<path d="M1045.3,1017.5C969,941.3,891.9,866,813.9,791.6c80.1,72.1,161.1,143.3,242.8,213.6
						C1053,1009.3,1049.1,1013.4,1045.3,1017.5z"/>
				</g>
				<g>
					<path d="M1016.9,1045.9c-63.4-71.1-127.6-141.5-192.6-211.1c67.4,67.2,135.7,133.7,204.7,199.5
						C1024.9,1038.1,1021,1042.1,1016.9,1045.9z"/>
				</g>
				<g>
					<path d="M986.9,1072.7c-90-110.5-181.2-220-273.7-328.4c94.2,106.9,189.7,212.7,286.3,317.4l-6.3,5.6L986.9,1072.7z"/>
				</g>
				<g>
					<path d="M955.5,1097.9C872.7,984,788.7,871.1,703.3,759.2c87.2,110.5,175.7,220,265.4,328.4c-2.2,1.8-4.4,3.5-6.6,5.2
						L955.5,1097.9z"/>
				</g>
				<g>
					<path d="M922.8,1121.3c-75.5-116.8-152.3-232.8-230.5-347.9c80.1,113.7,161.5,226.5,244.2,338.3L922.8,1121.3z"/>
				</g>
				<g>
					<path d="M888.8,1142.9c-57.4-101.4-115.9-202-175.5-302.1c62.1,98.5,125.4,196.2,189.8,293.3
						C898.3,1137.1,893.6,1140.1,888.8,1142.9z"/>
				</g>
				<g>
					<path d="M853.6,1162.7c-65.3-130.3-132.1-259.8-200.4-388.5c70.3,127.7,142,254.5,215.2,380.5c-2.5,1.4-4.9,2.7-7.4,4.1
						L853.6,1162.7z"/>
				</g>
				<g>
					<path d="M817.4,1180.5c-39.7-93.6-80.5-186.7-122.4-279.3c44.8,91.2,90.7,182,137.6,272.2
						C827.6,1175.8,822.5,1178.1,817.4,1180.5z"/>
				</g>
			</g>
			<g>
				<g>
					<path d="M802,1187.3c-44.9-111.4-91-222.3-138.4-332.6c50,109.2,101.3,217.8,153.7,325.8C812.3,1182.8,807.2,1185,802,1187.3z"
						/>
				</g>
				<g>
					<path d="M764.5,1202.2c-48.4-140.5-98.5-280.4-150.1-419.7c53.7,138.5,109,276.4,165.8,413.7L764.5,1202.2z"/>
				</g>
				<g>
					<path d="M726.2,1215c-14.4-52.3-29.2-104.4-44.2-156.5c-15-52.1-30.4-104.1-46-156c34.2,102.9,69.7,205.4,106.3,307.4l-8,2.6
						l-4,1.3L726.2,1215z"/>
				</g>
				<g>
					<path d="M687.3,1225.7c-22.9-105.3-47-210.4-72.4-315.1c28.4,104,57.9,207.6,88.7,310.9l-8.1,2.2L687.3,1225.7z"/>
				</g>
				<g>
					<path d="M647.8,1234.2c-14.8-94.1-30.6-188.1-47.5-281.8c20.3,93.1,41.6,185.9,64,278.5
						C658.8,1232.2,653.3,1233.2,647.8,1234.2z"/>
				</g>
				<g>
					<path d="M608,1240.6c-15.7-141.7-33.1-283.1-52-424.4c21.3,140.9,44.1,281.6,68.6,422C619.1,1239.1,613.5,1239.8,608,1240.6z"
						/>
				</g>
				<g>
					<path d="M568,1244.7c-7.8-140.6-17.3-281-28.3-421.4c13.4,140.1,28.4,280.1,45,419.9L568,1244.7z"/>
				</g>
				<g>
					<path d="M527.9,1246.6c-0.2-139.1-1.9-278.2-5.2-417.2c5.7,138.9,13.1,277.8,21.9,416.7C539,1246.3,533.4,1246.6,527.9,1246.6z
						"/>
				</g>
				<g>
					<path d="M487.8,1246.4c6.6-116.3,11.8-232.6,15.8-349c-1,116.4-0.7,232.9,0.9,349.4C498.9,1246.7,493.4,1246.7,487.8,1246.4z"
						/>
				</g>
				<g>
					<path d="M447.7,1244c15.4-144.9,29.2-290,41.3-435.1c-9.8,145.4-18.1,290.8-24.6,436.4l-8.4-0.5L447.7,1244z"/>
				</g>
				<g>
					<path d="M407.7,1239.4c17.1-100.2,33.1-200.6,47.9-301.2c-11.6,101-22,202.1-31.2,303.3C418.8,1241,413.2,1240.2,407.7,1239.4z
						"/>
				</g>
			</g>
			<g>
				<g>
					<path d="M391.1,1236.9c22.4-118,43.5-236.2,63.2-354.6c-16.9,118.9-32.4,237.9-46.6,357.2c-2.8-0.4-5.5-0.8-8.3-1.2
						L391.1,1236.9z"/>
				</g>
				<g>
					<path d="M351.5,1229.2C386.6,1084.8,420,940,451.7,794.9c-29.6,145.6-57.6,291.5-83.8,437.7c-2.8-0.5-5.5-1.1-8.2-1.7
						L351.5,1229.2z"/>
				</g>
				<g>
					<path d="M312.3,1219.3c32.1-103.6,63-207.6,92.8-311.8c-26.7,105.1-52.2,210.5-76.5,316.2L312.3,1219.3z"/>
				</g>
				<g>
					<path d="M273.8,1207.3c37.6-101,74-202.5,109.2-304.3c-32.3,102.8-63.3,206-93.2,309.6C284.4,1210.8,279.1,1209.1,273.8,1207.3
						z"/>
				</g>
				<g>
					<path d="M235.9,1193.1c38.4-87.2,75.8-174.8,112.1-262.8c-33.2,89.3-65.3,178.9-96.5,269l-7.9-3
						C241.1,1195.2,238.5,1194.2,235.9,1193.1z"/>
				</g>
				<g>
					<path d="M199,1176.9c63.3-127.7,125.1-256.1,185.4-385.2c-58.2,130.1-114.9,260.8-170.1,392.2
						C209.1,1181.7,204,1179.3,199,1176.9z"/>
				</g>
				<g>
					<path d="M163,1158.7c69.4-122.5,137.4-245.8,203.9-369.8c-64.4,125.1-127.5,251-189.1,377.6
						C172.8,1164,167.9,1161.4,163,1158.7z"/>
				</g>
				<g>
					<path d="M128,1138.6c75.1-117,148.9-235,221.3-353.7c-70.3,120-139.3,240.8-206.9,362.3C137.6,1144.4,132.8,1141.6,128,1138.6z
						"/>
				</g>
				<g>
					<path d="M94.3,1116.6c68.5-94.2,136-189.1,202.4-284.8c-63.9,97.3-126.7,195.4-188.4,294.1l-7-4.6L94.3,1116.6z"/>
				</g>
				<g>
					<path d="M61.8,1092.8C153.4,979.4,243.6,865,332.5,749.5c-87.1,116.8-172.9,234.7-257.3,353.4c-2.3-1.6-4.5-3.3-6.7-5
						L61.8,1092.8z"/>
				</g>
				<g>
					<path d="M30.7,1067.3c68.7-75,136.6-150.7,203.5-227.2c-64.5,78.6-128,157.9-190.7,238L30.7,1067.3z"/>
				</g>
			</g>
			<g>
				<g>
					<path d="M18.2,1056.2c82.8-87,164.6-175,245.3-263.9c-78.6,90.8-156.2,182.4-232.8,275L18.2,1056.2z"/>
				</g>
				<g>
					<path d="M-10.8,1028.3c107.6-102.4,214.1-206,319.4-310.8C204.9,823.9,102.4,931.4,1.1,1040.1
						C-2.9,1036.2-7,1032.3-10.8,1028.3z"/>
				</g>
				<g>
					<path d="M-38.3,998.9c83-69.8,165.2-140.5,246.6-212.1C129,860.8,50.6,935.6-27,1011.4c-1.9-2.1-3.8-4.1-5.7-6.2L-38.3,998.9z"
						/>
				</g>
				<g>
					<path d="M-64.1,968.1C22.1,903.4,107.5,837.7,192.2,771C109.5,840.1,27.5,910.2-53.6,981.1C-57.2,976.8-60.6,972.5-64.1,968.1z
						"/>
				</g>
				<g>
					<path d="M-88.3,935.9C-8.9,883.2,69.9,829.6,148,775.1C71.9,832.4-3.6,890.5-78.4,949.5C-81.7,945-85.1,940.5-88.3,935.9z"/>
				</g>
				<g>
					<path d="M-110.6,902.4C11.6,829,132.8,754.2,253.3,678C134.1,756.2,15.9,835.6-101.5,916.5l-4.6-7
						C-107.7,907.1-109.1,904.7-110.6,902.4z"/>
				</g>
				<g>
					<path d="M-131.1,867.7C-6.6,801.9,117.1,734.8,240,666.2C118.2,736.9-2.7,808.9-122.8,882.3
						C-125.7,877.5-128.3,872.6-131.1,867.7z"/>
				</g>
				<g>
					<path d="M-149.7,831.9c126.4-58.1,252.1-117.6,377.2-178.5C103.5,716.4-19.7,781-142.2,846.9L-149.7,831.9z"/>
				</g>
				<g>
					<path d="M-166.2,795.1c108.5-42.3,216.5-85.8,324.1-130.6c-106.3,47.5-212.1,96.1-317.4,146
						C-161.8,805.4-164.1,800.3-166.2,795.1z"/>
				</g>
				<g>
					<path d="M-180.8,757.4c138.3-46,276-93.6,413.1-142.8C96,665.9-39.8,718.8-175,773.2l-3-7.9L-180.8,757.4z"/>
				</g>
				<g>
					<path d="M-193.2,719c98.3-25.9,196.3-52.9,294-81.1C4,669.2-92.3,701.6-188.3,735.1C-190,729.7-191.6,724.3-193.2,719z"/>
				</g>
			</g>
			<g>
				<g>
					<path d="M-197.7,702.8c116.7-28.4,233-58.2,349-89.2C36,647.4-78.7,682.5-193.2,719C-194.8,713.6-196.3,708.2-197.7,702.8z"/>
				</g>
				<g>
					<path d="M-207.1,663.5c146-27.8,291.6-57.2,436.9-88.3C85,608.4-59.5,643.3-203.5,679.9C-204.8,674.5-205.9,669-207.1,663.5z"
						/>
				</g>
				<g>
					<path d="M-214.4,623.8c107.6-13.6,215.1-28.5,322.3-44.6c-106.7,19.2-213.2,39.6-319.5,61.2L-214.4,623.8z"/>
				</g>
				<g>
					<path d="M-219.3,583.8c107.5-7.7,214.9-16.5,322.3-26.7C-4,570.4-110.8,584.8-217.5,600.5
						C-218.1,594.9-218.8,589.4-219.3,583.8z"/>
				</g>
				<g>
					<path d="M-222.1,543.7c95.3-1.3,190.4-3.6,285.7-7.1c-95,6.8-189.9,14.8-284.8,23.8C-221.6,554.9-221.9,549.3-222.1,543.7z"/>
				</g>
				<g>
					<path d="M-222.7,503.7c142.4,4.4,284.9,7.2,427.4,8.3c-142.5,1.2-284.9,4-427.4,8.3l-0.1-8.3L-222.7,503.7z"/>
				</g>
				<g>
					<path d="M-221.2,463.6c140.3,12,280.6,22.3,421.1,31.1c-140.6-6.4-281.3-11.2-422-14.4C-221.9,474.7-221.6,469.1-221.2,463.6z"
						/>
				</g>
				<g>
					<path d="M-217.5,423.5c137.8,19.4,275.7,37.2,413.8,53.5c-138.4-13.9-277-26.1-415.6-36.8
						C-218.8,434.6-218.1,429.1-217.5,423.5z"/>
				</g>
				<g>
					<path d="M-211.6,383.6c114.2,23,228.6,44.7,343.3,65.1c-115.1-17.5-230.5-33.7-346-48.5L-211.6,383.6z"/>
				</g>
				<g>
					<path d="M-203.5,344.1C-62.3,380,79.4,414.3,221.4,447c-142.5-30.5-285.3-59.3-428.5-86.5C-205.9,355-204.8,349.5-203.5,344.1z
						"/>
				</g>
				<g>
					<path d="M-193.2,305C-96.4,336.3,0.6,366.5,98,395.5c-98.3-25.9-196.9-50.6-295.8-74.3C-196.3,315.8-194.8,310.4-193.2,305z"/>
				</g>
			</g>
			<g>
				<g>
					<path d="M-188.3,288.9c113.5,39.1,227.5,76.9,342,113.3C38.5,368.5-77.2,336.1-193.2,305C-191.6,299.7-190,294.3-188.3,288.9z"
						/>
				</g>
				<g>
					<path d="M-175,250.8c137.9,55.4,276.3,109.3,415.4,161.5c-139.8-50.2-280.2-98.7-421.2-145.7l2.8-7.9L-175,250.8z"/>
				</g>
				<g>
					<path d="M-159.6,213.5c97.9,46.6,196.4,92.1,295.3,136.5c-100.2-41.5-200.9-81.9-302-121.1
						C-164.1,223.7-161.8,218.6-159.6,213.5z"/>
				</g>
				<g>
					<path d="M-142.2,177.1c94.6,51.7,189.8,102.2,285.6,151.7c-97.1-46.7-194.8-92.2-293.1-136.6L-142.2,177.1z"/>
				</g>
				<g>
					<path d="M-122.8,141.7c80.8,50.4,162.2,100,244.1,148.5C37.7,244.7-46.4,200-131.1,156.3C-128.3,151.4-125.7,146.5-122.8,141.7
						z"/>
				</g>
				<g>
					<path d="M-101.5,107.5C15.9,188.4,134.1,267.8,253.3,346C132.8,269.8,11.6,195-110.6,121.6c1.5-2.4,3-4.8,4.5-7.1L-101.5,107.5
						z"/>
				</g>
				<g>
					<path d="M-78.4,74.5C33,160.6,145.3,245.5,258.6,329C143.9,247.4,28.2,167.1-88.3,88.1C-85.1,83.5-81.7,79-78.4,74.5z"/>
				</g>
				<g>
					<path d="M-53.6,42.9c105.2,91,211.5,180.8,318.7,269.3C156.4,225.5,46.6,140.1-64.1,55.9C-60.6,51.5-57.2,47.2-53.6,42.9z"/>
				</g>
				<g>
					<path d="M-27,12.6C56.5,93.8,140.8,174,226.2,253.3C138.9,176.2,50.7,100.2-38.3,25.1l5.6-6.3C-30.9,16.7-28.9,14.7-27,12.6z"
						/>
				</g>
				<g>
					<path d="M1.1-16.1c99.3,106.7,199.8,212.2,301.5,316.5C199.3,197.6,94.8,96.1-10.8-4.3C-7-8.3-2.9-12.2,1.1-16.1z"/>
				</g>
				<g>
					<path d="M30.7-43.3c64.5,78.6,129.9,156.5,196.1,233.6C158.1,115.4,88.6,41.2,18.2-32.2L30.7-43.3z"/>
				</g>
			</g>
			<g>
				<g>
					<path d="M43.5-54.1C118,40.1,193.5,133.5,270,226.1C191.3,135.4,111.5,45.6,30.7-43.3L43.5-54.1z"/>
				</g>
				<g>
					<path d="M75.2-78.9c86.1,121.1,173.6,241.1,262.5,360.2C247.1,163.6,155.1,46.9,61.8-68.8l6.7-5.1
						C70.7-75.6,72.9-77.3,75.2-78.9z"/>
				</g>
				<g>
					<path d="M108.2-102c57.3,92.1,115.6,183.5,175,274.2C221.2,83.3,158.3-5,94.3-92.6l6.9-4.8L108.2-102z"/>
				</g>
				<g>
					<path d="M142.5-123.2c51.8,94.5,104.7,188.4,158.7,281.7C244.5,66.8,186.8-24.2,128-114.6C132.8-117.6,137.6-120.4,142.5-123.2
						z"/>
				</g>
				<g>
					<path d="M177.8-142.6c40.9,86.1,82.7,171.7,125.5,256.8C257.5,30.7,210.7-52.3,163-134.7C167.9-137.4,172.8-140,177.8-142.6z"
						/>
				</g>
				<g>
					<path d="M214.3-159.9c55.2,131.4,111.9,262.1,170.1,392.2C324.1,103.2,262.3-25.2,199-152.9C204-155.3,209.1-157.7,214.3-159.9
						z"/>
				</g>
				<g>
					<path d="M251.6-175.3c47.3,132.6,96,264.6,146.3,396.1c-52.5-130.6-106.5-260.6-162-389.9c2.6-1,5.2-2.1,7.8-3.1L251.6-175.3z"
						/>
				</g>
				<g>
					<path d="M289.7-188.5C329.1-55.1,370,77.8,412.4,210.3C367.7,78.6,321.5-52.6,273.8-183.3C279.1-185.1,284.4-186.8,289.7-188.5
						z"/>
				</g>
				<g>
					<path d="M328.6-199.7C354.9-86.2,382.5,27,411.3,139.8c-31.7-112-64.7-223.7-99-335.1L328.6-199.7z"/>
				</g>
				<g>
					<path d="M367.9-208.6C393.6-65.2,421,77.9,450,220.7c-31.2-142.3-64-284.3-98.5-425.9l8.2-1.8
						C362.4-207.6,365.2-208.1,367.9-208.6z"/>
				</g>
				<g>
					<path d="M407.7-215.4c11.6,101,24.3,201.8,38.2,302.5c-17.1-100.2-35.4-200.2-54.8-300l8.3-1.4
						C402.1-214.7,404.9-215,407.7-215.4z"/>
				</g>
			</g>
			<g>
				<g>
					<path d="M424.3-217.6C435.8-98,448.6,21.3,462.7,140.6c-17-118.9-35.3-237.5-55.1-356C413.2-216.2,418.8-217,424.3-217.6z"/>
				</g>
				<g>
					<path d="M464.4-221.3c6.7,148.4,15.2,296.8,25.3,444.9c-12.3-148-26.3-295.9-42-443.7l8.4-0.7L464.4-221.3z"/>
				</g>
				<g>
					<path d="M504.5-222.8c-1.7,108.4-2.2,216.9-1.4,325.3c-3.9-108.4-9-216.7-15.3-324.9C493.4-222.7,498.9-222.7,504.5-222.8z"/>
				</g>
				<g>
					<path d="M544.6-222.1c-7.5,107.5-13.8,215.1-18.9,322.8c1.9-107.8,2.7-215.6,2.2-323.3C533.4-222.6,539-222.3,544.6-222.1z"/>
				</g>
				<g>
					<path d="M584.7-219.3c-12.1,94.5-23.2,189.1-33.1,283.9c6.6-95,12-190.2,16.4-285.3L584.7-219.3z"/>
				</g>
				<g>
					<path d="M624.6-214.2c-24.5,140.4-47.4,281.1-68.6,422c18.9-141.2,36.3-282.7,52-424.4C613.5-215.8,619.1-215.1,624.6-214.2z"
						/>
				</g>
				<g>
					<path d="M664.3-207c-31.8,137.1-62,274.6-90.7,412.4c26.3-138.3,51.1-276.8,74.2-415.7C653.3-209.2,658.8-208.2,664.3-207z"/>
				</g>
				<g>
					<path d="M703.6-197.5C664.7-64,627.3,70,591.5,204.4C625,69.4,656.9-66,687.3-201.7l8.2,2L703.6-197.5z"/>
				</g>
				<g>
					<path d="M742.3-185.9c-39.1,109.7-77,219.8-113.6,330.4C645.6,88.7,662.2,32.9,678.4-23c16.3-55.9,32.2-111.9,47.8-168l4,1.2
						l4,1.3L742.3-185.9z"/>
				</g>
				<g>
					<path d="M780.3-172.3C724.4-37.6,670.2,97.6,617.5,233.5c50.6-136.6,99.6-273.9,147.1-411.7L780.3-172.3z"/>
				</g>
				<g>
					<path d="M817.4-156.5c-44.8,91.2-88.6,183-131.3,275.3C725.8,25.2,764.5-68.8,802-163.3C807.2-161,812.3-158.8,817.4-156.5z"/>
				</g>
			</g>
			<g>
				<g>
					<path d="M832.6-149.3C777.7-42.6,723.9,64.9,671.5,172.9c49.9-109.2,98.6-219,146-329.4C822.5-154.1,827.6-151.8,832.6-149.3z"
						/>
				</g>
				<g>
					<path d="M868.4-130.7c-74.6,128.5-147.7,257.8-219.3,388C718.8,126.1,787-5.9,853.6-138.7l7.4,3.9
						C863.5-133.4,866-132,868.4-130.7z"/>
				</g>
				<g>
					<path d="M903.1-110.2C843-19.9,783.9,71,725.8,162.6c55.4-93.3,109.7-187.1,162.9-281.6C893.6-116.1,898.3-113.1,903.1-110.2z"
						/>
				</g>
				<g>
					<path d="M936.6-87.8C872-1.5,808.4,85.5,745.8,173.3c60-89.5,119-179.7,177-270.6L936.6-87.8z"/>
				</g>
				<g>
					<path d="M968.8-63.6C907.4,9.2,846.8,82.7,787,156.9c57-76.3,113.2-153.2,168.5-230.8l6.7,5.1
						C964.4-67.1,966.6-65.4,968.8-63.6z"/>
				</g>
				<g>
					<path d="M999.6-37.7C902.9,67,807.4,172.8,713.2,279.6C805.7,171.2,896.9,61.8,986.9-48.7l6.4,5.4L999.6-37.7z"/>
				</g>
				<g>
					<path d="M1028.9-10.2C927.9,87.8,828,187,729.3,287.3c97-102,192.9-205.1,287.6-309.2C1021-18.1,1024.9-14.1,1028.9-10.2z"/>
				</g>
				<g>
					<path d="M1056.7,18.8C951.8,110.1,847.9,202.6,745,296.2c101.2-95.4,201.3-192,300.3-289.7C1049.1,10.6,1053,14.7,1056.7,18.8z
						"/>
				</g>
				<g>
					<path d="M1082.9,49.4C990.7,120.5,899.4,192.7,808.8,266c88.6-75.5,176.4-152,263.4-229.5C1075.8,40.7,1079.4,45,1082.9,49.4z"
						/>
				</g>
				<g>
					<path d="M1107.4,81.3c-119.6,83.2-238.3,167.8-356,253.6c116.4-87.7,231.7-176.8,346-267.1
						C1100.8,72.2,1104.1,76.8,1107.4,81.3z"/>
				</g>
				<g>
					<path d="M1130.1,114.5c-87,52.7-173.3,106.3-259.1,161c83.9-57.4,167.2-115.7,249.8-175C1124,105.2,1127.1,109.8,1130.1,114.5z
						"/>
				</g>
			</g>
			<g>
				<g>
					<path d="M1139,128.7C1035.2,189.1,932,250.5,829.5,313.2c100.9-65.1,201.2-131.3,300.6-198.7
						C1133.1,119.2,1136.1,124,1139,128.7z"/>
				</g>
				<g>
					<path d="M1159.1,163.7c-132.1,68-263.4,137.6-393.9,208.6c129.4-72.9,258-147.4,385.8-223.3
						C1153.7,153.9,1156.5,158.8,1159.1,163.7z"/>
				</g>
				<g>
					<path d="M1177.3,199.7C1078,243.3,979.2,288,880.9,333.8c96.9-48.6,193.2-98.4,289-149.2l3.7,7.5
						C1174.9,194.6,1176.1,197.2,1177.3,199.7z"/>
				</g>
				<g>
					<path d="M1193.4,236.7c-101,37.8-201.5,76.7-301.5,116.8c98.9-43,197.2-87.1,295-132.3C1189.2,226.3,1191.3,231.5,1193.4,236.7
						z"/>
				</g>
				<g>
					<path d="M1207.5,274.5c-91.1,28.1-181.8,57.3-272.1,87.5c89.2-33.4,178-67.9,266.5-103.3C1203.8,264,1205.7,269.3,1207.5,274.5
						z"/>
				</g>
				<g>
					<path d="M1219.5,313.1C1081.6,348.9,944,386.3,807,425.3c136.4-41.2,272.3-84,407.8-128.3
						C1216.4,302.4,1218,307.7,1219.5,313.1z"/>
				</g>
				<g>
					<path d="M1229.3,352.3c-138,27.8-275.6,57.1-413,88c136.8-33.2,273.1-68,409.1-104.4C1226.8,341.4,1228.2,346.8,1229.3,352.3z"
						/>
				</g>
				<g>
					<path d="M1237,391.9c-137.7,19.8-275.1,41.3-412.2,64.3c136.8-25.4,273.2-52.3,409.3-80.8c0.5,2.8,1.1,5.5,1.5,8.3L1237,391.9z
						"/>
				</g>
				<g>
					<path d="M1242.5,431.8c-116.1,9.8-232,21-347.8,33.4c115.4-15.4,230.7-32.1,345.8-50.1c0.4,2.8,0.7,5.5,1,8.3L1242.5,431.8z"/>
				</g>
				<g>
					<path d="M1245.7,471.9c-145.7,5.1-291.2,11.8-436.7,20.2c145.3-10.6,290.6-22.9,435.6-36.9L1245.7,471.9z"/>
				</g>
				<g>
					<path d="M1246.8,512c-101.7-2.8-203.3-4.4-305-4.9c101.6-2.8,203.2-6.7,304.8-11.8L1246.8,512z"/>
				</g>
			</g>
		</g>
	</g>
</g>
</svg>
