<?xml version="1.0" encoding="utf-8"?>
<!-- Generator: Adobe Illustrator 22.1.0, SVG Export Plug-In . SVG Version: 6.00 Build 0)  -->
<svg version="1.1" id="Layer_1" xmlns="http://www.w3.org/2000/svg" xmlns:xlink="http://www.w3.org/1999/xlink" x="0px" y="0px"
	 viewBox="0 0 1024 1024" style="enable-background:new 0 0 1024 1024;" xml:space="preserve">
<g>
	<g>
		<g>
			<path d="M1244.7,528.7c-146.3-6.1-292.7-10.5-439.1-13.3c146.4,0.5,292.8-0.6,439.3-3.4L1244.7,528.7z"/>
		</g>
		<g>
			<path d="M1242.8,568.7c-109.8-11.2-219.7-21.2-329.7-29.9c110.2,5.7,220.5,10.1,330.8,13.3L1242.8,568.7z"/>
		</g>
		<g>
			<path d="M1238.6,608.6c-103.4-16.5-207.1-31.8-310.9-45.9c104.2,10.9,208.5,20.7,312.9,29.3l-1,8.3
				C1239.3,603,1239,605.8,1238.6,608.6z"/>
		</g>
		<g>
			<path d="M1232.2,648.3c-128-27-256.2-52.4-384.8-76.5c129,21.5,258.2,41.4,387.7,59.9l-1.4,8.3
				C1233.3,642.8,1232.7,645.5,1232.2,648.3z"/>
		</g>
		<g>
			<path d="M1223.7,687.6c-107.5-29.3-215.3-57.4-323.3-84.3c108.8,23.9,217.8,46.6,327.1,68C1226.3,676.8,1225,682.2,1223.7,687.6z
				"/>
		</g>
		<g>
			<path d="M1213,726.5c-124.6-41-249.7-80.6-375.2-118.7c126.2,35.7,252.9,69.9,379.9,102.6C1216.2,715.8,1214.6,721.1,1213,726.5z
				"/>
		</g>
		<g>
			<path d="M1200.2,764.7c-121.2-47.5-243-93.6-365.3-138.3c123.1,42.2,246.8,83.1,370.9,122.5
				C1203.9,754.1,1202.1,759.4,1200.2,764.7z"/>
		</g>
		<g>
			<path d="M1185.2,802.1c-134.1-60.9-268.9-120.2-404.5-178c136.3,55.7,273.3,109.9,410.9,162.5
				C1189.5,791.8,1187.5,797,1185.2,802.1z"/>
		</g>
		<g>
			<path d="M1168.3,838.6c-116.9-61.4-234.6-121.4-352.9-180.1c119.4,56.4,239.5,111.4,360.2,165c-1.2,2.5-2.4,5.1-3.6,7.6
				L1168.3,838.6z"/>
		</g>
		<g>
			<path d="M1149.3,874.1c-98.1-59-196.8-116.9-296.2-173.6c100.8,54.1,202.3,107.2,304.3,159
				C1154.8,864.3,1152.1,869.2,1149.3,874.1z"/>
		</g>
		<g>
			<path d="M1128.5,908.4c-70.6-48.8-141.9-96.8-213.6-144c73.7,44.1,147.8,87.4,222.5,129.8C1134.5,899,1131.5,903.8,1128.5,908.4z
				"/>
		</g>
	</g>
	<g>
		<g>
			<path d="M1119.3,922.4C999.6,838.1,879,755,757.4,673.5c122.8,79.7,246.5,158.1,371.1,235
				C1125.5,913.1,1122.4,917.8,1119.3,922.4z"/>
		</g>
		<g>
			<path d="M1095.9,955c-86.2-68.9-173.1-136.9-260.8-203.9c89.5,64.5,179.8,128,270.8,190.4C1102.6,946.1,1099.3,950.6,1095.9,955z
				"/>
		</g>
		<g>
			<path d="M1070.7,986.3c-78-69.9-156.8-139-236.4-207.1c81.6,65.7,164,130.4,247.1,194.2C1078,977.8,1074.3,982.1,1070.7,986.3z"
				/>
		</g>
		<g>
			<path d="M1044,1016.2c-93-92-187-182.9-282-272.8c96.8,87.9,194.6,174.8,293.4,260.5C1051.6,1008,1047.8,1012.1,1044,1016.2z"/>
		</g>
		<g>
			<path d="M1015.6,1044.5c-74.5-82.8-149.9-164.8-226.3-245.9c78.5,79,158,157.1,238.3,234.3
				C1023.6,1036.8,1019.6,1040.7,1015.6,1044.5z"/>
		</g>
		<g>
			<path d="M985.7,1071.3C903,969.4,819.2,868.5,734.2,768.6c86.9,98.2,174.9,195.5,264.1,291.7l-6.3,5.5L985.7,1071.3z"/>
		</g>
		<g>
			<path d="M954.4,1096.4c-76.4-105.4-154-210-232.7-313.6c80.8,102.1,162.8,203.2,246,303.4c-2.2,1.8-4.4,3.5-6.6,5.2L954.4,1096.4
				z"/>
		</g>
		<g>
			<path d="M921.7,1119.8c-80.1-123.7-161.6-246.4-244.5-368.1c84.7,120.5,170.8,240,258.3,358.6L921.7,1119.8z"/>
		</g>
		<g>
			<path d="M887.8,1141.3c-65.4-114.8-132-228.7-200-342c70.2,111.9,141.6,222.9,214.3,333.2
				C897.3,1135.5,892.6,1138.5,887.8,1141.3z"/>
		</g>
		<g>
			<path d="M852.7,1161C802,1058.4,750,956.4,696.9,855.1c55.7,100,112.6,199.3,170.6,297.9c-2.4,1.4-4.9,2.7-7.3,4L852.7,1161z"/>
		</g>
		<g>
			<path d="M816.6,1178.7c-33.2-79.2-67.2-158.1-102.2-236.5c38.2,76.9,77.4,153.4,117.4,229.4
				C826.8,1174.1,821.7,1176.4,816.6,1178.7z"/>
		</g>
	</g>
	<g>
		<g>
			<path d="M801.3,1185.5C746,1049.9,689.2,915,630.9,780.7c60.4,133.4,122.3,266.1,185.7,398
				C811.6,1181.1,806.4,1183.3,801.3,1185.5z"/>
		</g>
		<g>
			<path d="M763.9,1200.4c-35.3-104.6-71.8-208.7-109.5-312.4c40.5,102.6,82.2,204.8,125.1,306.5L763.9,1200.4z"/>
		</g>
		<g>
			<path d="M725.7,1213.2c-13.9-50.5-28.1-100.9-42.6-151.3c-14.5-50.3-29.3-100.6-44.4-150.8c33.2,99.4,67.5,198.3,103,297l-8,2.6
				l-4,1.3L725.7,1213.2z"/>
		</g>
		<g>
			<path d="M686.8,1223.9c-28.4-127.7-58.3-255-89.6-381.9c33.8,126.3,69.1,252.2,105.8,377.8l-8.1,2.2L686.8,1223.9z"/>
		</g>
		<g>
			<path d="M647.5,1232.4c-17.7-110-36.8-219.7-57-329.2c23.2,109,47.7,217.6,73.5,326C658.5,1230.3,653,1231.3,647.5,1232.4z"/>
		</g>
		<g>
			<path d="M607.8,1238.7c-14.3-130.4-30-260.7-47.2-390.7c19.8,129.7,41.1,259.2,63.8,388.3
				C618.8,1237.2,613.3,1237.9,607.8,1238.7z"/>
		</g>
		<g>
			<path d="M567.8,1242.8c-7-130-15.6-260-25.5-389.7c12.6,129.6,26.7,259,42.2,388.3L567.8,1242.8z"/>
		</g>
		<g>
			<path d="M527.8,1244.7c-0.4-147.3-2.4-294.6-6-441.9c5.9,147.2,13.5,294.3,22.7,441.3C538.9,1244.4,533.4,1244.7,527.8,1244.7z"
				/>
		</g>
		<g>
			<path d="M487.8,1244.5c7.1-131.9,12.7-263.8,16.8-395.8c-1.5,132-1.6,264.1-0.1,396.2C499,1244.8,493.4,1244.8,487.8,1244.5z"/>
		</g>
		<g>
			<path d="M447.9,1242.1c12.7-113.7,24.1-227.6,34.2-341.6c-7.1,114.2-13,228.5-17.6,342.8l-8.3-0.5L447.9,1242.1z"/>
		</g>
		<g>
			<path d="M408,1237.5c14.9-84.6,28.8-169.3,41.7-254.2c-9.3,85.4-17.7,170.8-25.1,256.4C419,1239.1,413.5,1238.3,408,1237.5z"/>
		</g>
	</g>
	<g>
		<g>
			<path d="M391.4,1235c26.7-144,51.8-288.2,75.2-432.7c-21.2,144.9-40.8,289.9-58.6,435.3c-2.8-0.4-5.5-0.8-8.3-1.2L391.4,1235z"/>
		</g>
		<g>
			<path d="M351.9,1227.3c26.8-107.1,52.3-214.4,76.6-322c-21.3,108.3-41.4,216.8-60.2,325.5c-2.7-0.5-5.5-1.1-8.2-1.7L351.9,1227.3
				z"/>
		</g>
		<g>
			<path d="M312.8,1217.5c31.1-100.1,61.1-200.5,89.9-301.2c-25.7,101.6-50.3,203.4-73.7,305.6L312.8,1217.5z"/>
		</g>
		<g>
			<path d="M274.4,1205.5c45-122.8,88.6-246.1,130.8-369.9c-39.7,124.6-78,249.6-114.9,375.2C285,1209,279.7,1207.3,274.4,1205.5z"
				/>
		</g>
		<g>
			<path d="M236.6,1191.4c44.5-102.2,87.7-204.8,129.8-307.9c-39.2,104.2-77.3,208.9-114.2,314l-7.8-3
				C241.8,1193.5,239.2,1192.4,236.6,1191.4z"/>
		</g>
		<g>
			<path d="M199.8,1175.2c58.5-117.5,115.5-235.6,171.3-354.3c-53.4,119.8-105.4,240.2-156,361.3
				C209.9,1180,204.8,1177.6,199.8,1175.2z"/>
		</g>
		<g>
			<path d="M163.9,1157.1C228.2,1043.9,291.3,930,353,815.4c-59.4,115.8-117.5,232.4-174.3,349.5
				C173.7,1162.3,168.8,1159.7,163.9,1157.1z"/>
		</g>
		<g>
			<path d="M129,1137c79.4-124,157.4-249,234-374.9c-74.6,127-147.8,254.8-219.6,383.5C138.6,1142.7,133.8,1139.9,129,1137z"/>
		</g>
		<g>
			<path d="M95.4,1115c77.4-107,153.6-214.9,228.5-323.6c-72.8,110.1-144.4,221.1-214.7,333l-7-4.6L95.4,1115z"/>
		</g>
		<g>
			<path d="M63,1091.3c72.4-88.7,143.7-178.2,214-268.5c-67.9,92.1-134.8,185-200.6,278.6c-2.3-1.6-4.5-3.3-6.7-5L63,1091.3z"/>
		</g>
		<g>
			<path d="M32,1065.9c58.4-63,116-126.7,172.9-191c-54.1,66.7-107.5,133.9-160.1,201.9L32,1065.9z"/>
		</g>
	</g>
	<g>
		<g>
			<path d="M19.5,1054.8c100.5-106.5,199.7-214.2,297.8-323C220.9,842.1,125.8,953.4,32,1065.9L19.5,1054.8z"/>
		</g>
		<g>
			<path d="M-9.5,1027c80.4-75.5,160-152,238.7-229.3C152.7,877.2,77.1,957.5,2.4,1038.7C-1.6,1034.8-5.6,1031-9.5,1027z"/>
		</g>
		<g>
			<path d="M-36.9,997.7C43.4,930.3,122.9,862.1,201.6,793C125,864.5,49.3,936.8-25.7,1010.1c-1.9-2-3.8-4.1-5.7-6.1L-36.9,997.7z"
				/>
		</g>
		<g>
			<path d="M-62.7,966.9c104.2-79,207.6-159.2,309.9-240.6c-100.7,83.4-200.6,168-299.4,253.6C-55.7,975.6-59.2,971.3-62.7,966.9z"
				/>
		</g>
		<g>
			<path d="M-86.7,934.8c92.5-62,184.4-125.1,275.5-189.2C99.4,812.2,10.9,879.8-76.9,948.3C-80.2,943.8-83.5,939.4-86.7,934.8z"/>
		</g>
		<g>
			<path d="M-109,901.4c112.6-67.4,224.3-136,335.3-206C116.7,767.5,8,840.8-99.9,915.4l-4.6-7C-106.1,906.1-107.5,903.7-109,901.4z
				"/>
		</g>
		<g>
			<path d="M-129.4,866.8C-14.2,806.1,100.3,744.2,214.1,681C101.6,746.5-10.2,813.3-121.2,881.3
				C-124,876.5-126.7,871.6-129.4,866.8z"/>
		</g>
		<g>
			<path d="M-148,831.1c133.8-61.7,266.9-124.9,399.2-189.6C119.9,708.2-10.7,776.4-140.5,846.1L-148,831.1z"/>
		</g>
		<g>
			<path d="M-164.5,794.3c122.9-48.3,245.3-98,367.1-149.2C81.8,698.6-38.3,753.5-157.8,809.7C-160.1,804.6-162.4,799.5-164.5,794.3
				z"/>
		</g>
		<g>
			<path d="M-179,756.8c108.8-35.6,217.1-72.4,325-110.4C39.2,687.2-67.2,729.2-173.2,772.5l-3-7.8L-179,756.8z"/>
		</g>
		<g>
			<path d="M-191.4,718.4c83.2-21.5,166.1-43.9,248.7-67.2c-81.6,26.8-162.8,54.6-243.8,83.3C-188.2,729.2-189.8,723.8-191.4,718.4z
				"/>
		</g>
	</g>
	<g>
		<g>
			<path d="M-195.9,702.3C-53.8,667,87.9,630.2,229.2,591.7C88.5,632.3-51.7,674.6-191.4,718.4C-193,713.1-194.4,707.7-195.9,702.3z
				"/>
		</g>
		<g>
			<path d="M-205.3,663.1c108.6-19.9,216.9-41.1,324.9-63.5c-107.4,25.4-214.5,52-321.3,79.9C-202.9,674-204.1,668.6-205.3,663.1z"
				/>
		</g>
		<g>
			<path d="M-212.5,623.5c104-13.1,207.8-27.4,311.4-42.8c-103.1,18.6-206,38.4-308.7,59.4L-212.5,623.5z"/>
		</g>
		<g>
			<path d="M-217.4,583.6c130.4-9.9,260.7-21.3,390.9-34.1c-129.8,15.4-259.5,32.4-389,50.8C-216.2,594.7-216.9,589.2-217.4,583.6z"
				/>
		</g>
		<g>
			<path d="M-220.2,543.7c111.4-2,222.7-5.2,334-9.7c-111.1,7.5-222.1,16.3-333.1,26.4C-219.7,554.8-220.1,549.2-220.2,543.7z"/>
		</g>
		<g>
			<path d="M-220.9,503.7c131.1,4.2,262.3,7,393.4,8.3c-131.1,1.3-262.3,4.1-393.4,8.3l-0.1-8.3L-220.9,503.7z"/>
		</g>
		<g>
			<path d="M-219.3,463.7c129.7,11.3,259.5,21.1,389.4,29.4c-130.1-5.7-260.2-10-390.3-12.7C-220.1,474.8-219.7,469.2-219.3,463.7z"
				/>
		</g>
		<g>
			<path d="M-215.6,423.7c145.9,20.4,292,39.1,438.3,56.1c-146.6-14.8-293.3-28-440.2-39.5C-216.9,434.8-216.2,429.3-215.6,423.7z"
				/>
		</g>
		<g>
			<path d="M-209.7,384c129.6,25.7,259.4,49.9,389.5,72.7c-130.5-20.2-261.3-38.9-392.2-56.1L-209.7,384z"/>
		</g>
		<g>
			<path d="M-201.6,344.5c110.7,28.8,221.9,56.3,333.3,82.6c-112-23.3-224.3-45.4-336.9-66.2C-204.1,355.4-202.9,350-201.6,344.5z"
				/>
		</g>
		<g>
			<path d="M-191.4,305.6c81.6,26.8,163.4,52.7,245.6,77.7c-83.1-21.5-166.5-42-250.2-61.5C-194.4,316.3-193,310.9-191.4,305.6z"/>
		</g>
	</g>
	<g>
		<g>
			<path d="M-186.5,289.5c138.6,47.1,277.8,92.5,417.5,136.4C90.7,384.2-50.1,344.1-191.4,305.6
				C-189.8,300.2-188.2,294.8-186.5,289.5z"/>
		</g>
		<g>
			<path d="M-173.2,251.5C-71.1,293.3,31.5,334,134.5,373.4C30.4,336.8-74,301.4-179,267.2l2.8-7.9L-173.2,251.5z"/>
		</g>
		<g>
			<path d="M-157.8,214.3c94.6,45.1,189.6,89.2,285.2,132.1c-96.8-40-194.1-78.9-291.8-116.7C-162.4,224.5-160.1,219.4-157.8,214.3z
				"/>
		</g>
		<g>
			<path d="M-140.5,177.9c115.1,62.2,230.9,123,347.4,182.5C89.3,303.2-29,247.4-148,192.9L-140.5,177.9z"/>
		</g>
		<g>
			<path d="M-121.2,142.7C-26.4,201.3,69,258.7,165,315.1C67.5,261.4-30.7,208.8-129.4,157.2C-126.7,152.4-124,147.5-121.2,142.7z"
				/>
		</g>
		<g>
			<path d="M-99.9,108.6C8,183.2,116.7,256.5,226.3,328.6C115.3,258.7,3.6,190-109,122.6c1.5-2.4,2.9-4.7,4.5-7.1L-99.9,108.6z"/>
		</g>
		<g>
			<path d="M-76.9,75.7C26,155.5,129.8,234.1,234.4,311.5C128.2,236.2,21.1,162-86.7,89.2C-83.5,84.6-80.2,80.2-76.9,75.7z"/>
		</g>
		<g>
			<path d="M-52.1,44.1c111.5,96.2,224.2,191.2,337.9,284.8C170.7,237,54.5,146.4-62.7,57.1C-59.2,52.7-55.7,48.4-52.1,44.1z"/>
		</g>
		<g>
			<path d="M-25.7,13.9c95,91.8,190.9,182.5,287.9,272.1C163.6,198.3,63.8,111.8-36.9,26.3l5.6-6.2C-29.5,18-27.5,16-25.7,13.9z"/>
		</g>
		<g>
			<path d="M2.4-14.7C80,69.4,158.5,152.7,237.9,235.1C156.3,154.8,73.9,75.4-9.5-3C-5.6-7-1.6-10.8,2.4-14.7z"/>
		</g>
		<g>
			<path d="M32-41.9C86.1,24.8,141,90.9,196.6,156.3C138.3,93.3,79.2,30.9,19.5-30.8L32-41.9z"/>
		</g>
	</g>
	<g>
		<g>
			<path d="M44.7-52.7c91.2,114.5,183.8,228,277.6,340.5C226.8,176.8,130,66.9,32-41.9L44.7-52.7z"/>
		</g>
		<g>
			<path d="M76.3-77.4c63.4,90.3,127.8,179.9,193.2,268.8C201.7,104.4,132.8,18.2,63-67.3l6.6-5.1C71.8-74.1,74.1-75.8,76.3-77.4z"
				/>
		</g>
		<g>
			<path d="M109.3-100.4c55.3,89,111.6,177.4,168.8,265.1C218.2,78.8,157.3-6.5,95.4-91l6.9-4.7L109.3-100.4z"/>
		</g>
		<g>
			<path d="M143.4-121.6C206.8-7.2,271.6,106.5,337.6,219.4C269.3,107.8,199.8-3,129-113C133.8-115.9,138.6-118.7,143.4-121.6z"/>
		</g>
		<g>
			<path d="M178.7-140.9c48.2,100.4,97.6,200.3,148.1,299.6C273.6,60.9,219.3-36.4,163.9-133.1C168.8-135.7,173.7-138.3,178.7-140.9
				z"/>
		</g>
		<g>
			<path d="M215-158.2c50.6,121,102.6,241.4,156,361.3C315.3,84.4,258.2-33.7,199.8-151.2C204.8-153.6,209.9-156,215-158.2z"/>
		</g>
		<g>
			<path d="M252.3-173.5C295.8-50.8,340.7,71.4,387,193C338.3,72.3,288.2-47.8,236.6-167.4c2.6-1,5.2-2.1,7.8-3.1L252.3-173.5z"/>
		</g>
		<g>
			<path d="M290.3-186.7c41.9,141.3,85.3,282,130.4,422.2c-47.2-139.5-96-278.6-146.4-417C279.7-183.3,285-185,290.3-186.7z"/>
		</g>
		<g>
			<path d="M329-197.9C359.2-69.3,390.9,59,424,186.8C388.4,59.6,351.4-67.1,312.8-193.5L329-197.9z"/>
		</g>
		<g>
			<path d="M368.3-206.8C387.9-94.1,408.8,18.5,431,130.8c-25.1-111.6-51.5-223-79.1-334.1l8.2-1.8
				C362.8-205.7,365.5-206.3,368.3-206.8z"/>
		</g>
		<g>
			<path d="M408-213.5c9.3,85.4,19.7,170.6,31,255.7C424-42.4,408.2-126.8,391.4-211l8.3-1.4C402.4-212.8,405.2-213.1,408-213.5z"/>
		</g>
	</g>
	<g>
		<g>
			<path d="M424.6-215.7C439.1-70,455.3,75.5,473.2,220.8C453.1,75.8,431.4-69,408-213.5C413.5-214.3,419-215.1,424.6-215.7z"/>
		</g>
		<g>
			<path d="M464.5-219.4c4.3,110.3,9.8,220.5,16.6,330.6c-9.8-109.9-20.9-219.6-33.3-329.3l8.3-0.7L464.5-219.4z"/>
		</g>
		<g>
			<path d="M504.5-220.9c-1.7,104.8-2.3,209.5-1.6,314.3c-3.8-104.7-8.8-209.3-15-313.9C493.4-220.8,499-220.8,504.5-220.9z"/>
		</g>
		<g>
			<path d="M544.5-220.2C536-89.7,528.9,40.9,523.4,171.6c3-130.8,4.4-261.6,4.4-392.3C533.4-220.7,538.9-220.4,544.5-220.2z"/>
		</g>
		<g>
			<path d="M584.5-217.4c-13.7,110.6-26.1,221.3-37.3,332.1c8.1-111.1,15-222.3,20.6-333.5L584.5-217.4z"/>
		</g>
		<g>
			<path d="M624.3-212.3c-22.7,129.2-44,258.7-63.8,388.3c17.2-130,33-260.3,47.2-390.7C613.3-213.9,618.8-213.2,624.3-212.3z"/>
		</g>
		<g>
			<path d="M663.9-205.1c-29.6,126.8-57.8,253.9-84.5,381.3c24.1-127.9,46.8-256.1,68-384.6C653-207.3,658.5-206.3,663.9-205.1z"/>
		</g>
		<g>
			<path d="M703.1-195.7C662-54.2,622.6,87.7,584.9,230.1c35.6-142.9,69.6-286.2,101.9-430l8.1,2L703.1-195.7z"/>
		</g>
		<g>
			<path d="M741.7-184.1c-44,124.5-86.6,249.6-127.7,375c19.3-63.1,38.3-126.4,57-189.8c18.6-63.3,36.9-126.8,54.8-190.4l4,1.2
				l4,1.3L741.7-184.1z"/>
		</g>
		<g>
			<path d="M779.6-170.5C735.2-65,692,41,650.1,147.5C689.2,40,727.2-68,763.9-176.4L779.6-170.5z"/>
		</g>
		<g>
			<path d="M816.6-154.7C778.4-77.9,741-0.5,704.6,77.2C737.7-2,770-81.6,801.3-161.5C806.4-159.3,811.6-157.1,816.6-154.7z"/>
		</g>
	</g>
	<g>
		<g>
			<path d="M831.8-147.6C765.4-17.2,700.4,114.1,637,246.1c61.4-132.9,121.3-266.5,179.7-400.8C821.7-152.4,826.8-150.1,831.8-147.6
				z"/>
		</g>
		<g>
			<path d="M867.5-129c-56,95.1-110.9,190.8-164.7,287.1C753.9,60.3,803.9-38,852.7-137l7.4,3.9C862.6-131.8,865-130.4,867.5-129z"
				/>
		</g>
		<g>
			<path d="M902.1-108.6c-58.2,87.2-115.3,175-171.5,263.4C784.1,64.7,836.4-26,887.8-117.3C892.6-114.5,897.3-111.5,902.1-108.6z"
				/>
		</g>
		<g>
			<path d="M935.5-86.3C857.6,18.8,780.9,124.8,705.4,231.6C778.8,123.3,850.9,14.2,921.7-95.8L935.5-86.3z"/>
		</g>
		<g>
			<path d="M967.6-62.1c-71.4,85.4-141.9,171.7-211.4,258.8c67.1-88.9,133.1-178.6,198.2-269.1l6.6,5.1
				C963.2-65.6,965.4-63.9,967.6-62.1z"/>
		</g>
		<g>
			<path d="M998.3-36.3c-89.1,96.3-177.2,193.5-264.1,291.7C819.2,155.5,903,54.6,985.7-47.3l6.4,5.4L998.3-36.3z"/>
		</g>
		<g>
			<path d="M1027.6-8.9C934,81.7,841.5,173.3,750.1,265.9c89.6-94.5,178.1-190,265.5-286.4C1019.6-16.7,1023.6-12.8,1027.6-8.9z"/>
		</g>
		<g>
			<path d="M1055.3,20.1c-111,96.8-221,194.9-329.8,294.2C832.8,213.3,939,111.2,1044,7.8C1047.8,11.9,1051.6,16,1055.3,20.1z"/>
		</g>
		<g>
			<path d="M1081.4,50.6c-104.3,81-207.6,163.2-310.1,246.6c100.8-85.3,200.6-171.8,299.4-259.4C1074.3,41.9,1078,46.2,1081.4,50.6z
				"/>
		</g>
		<g>
			<path d="M1105.8,82.4c-94.3,64.9-187.9,130.8-280.6,197.8c91-69.4,181.2-139.8,270.7-211.2C1099.3,73.4,1102.6,77.9,1105.8,82.4z
				"/>
		</g>
		<g>
			<path d="M1128.5,115.6c-73.7,44.1-146.9,89.1-219.5,134.9c70.6-48.8,140.8-98.4,210.3-148.9
				C1122.4,106.2,1125.5,110.9,1128.5,115.6z"/>
		</g>
	</g>
	<g>
		<g>
			<path d="M1137.4,129.7C1011.1,203.8,885.6,279.3,761,356.2c123.4-78.8,245.9-159,367.5-240.6
				C1131.5,120.2,1134.5,125,1137.4,129.7z"/>
		</g>
		<g>
			<path d="M1157.5,164.6c-98.4,49.9-196.3,100.9-293.6,153c95.8-54.8,190.9-110.7,285.4-167.7
				C1152.1,154.8,1154.8,159.7,1157.5,164.6z"/>
		</g>
		<g>
			<path d="M1175.6,200.5c-96,42-191.4,85.1-286.4,129.3c93.6-47.1,186.6-95.2,279.1-144.4l3.7,7.5
				C1173.2,195.5,1174.4,198,1175.6,200.5z"/>
		</g>
		<g>
			<path d="M1191.7,237.4c-122.3,46.4-244,94.2-365.2,143.4c120.2-51.6,239.8-104.6,358.7-158.9
				C1187.5,227,1189.5,232.2,1191.7,237.4z"/>
		</g>
		<g>
			<path d="M1205.8,275.2c-106.3,33.3-212.2,67.9-317.7,103.6c104.5-38.6,208.5-78.4,312.1-119.5
				C1202.1,264.6,1203.9,269.9,1205.8,275.2z"/>
		</g>
		<g>
			<path d="M1217.7,313.6c-127,32.7-253.7,67-379.9,102.6c125.5-38.1,250.6-77.7,375.2-118.7
				C1214.6,302.9,1216.2,308.2,1217.7,313.6z"/>
		</g>
		<g>
			<path d="M1227.5,352.7c-127.7,25.5-255,52.4-382.1,80.8c126.4-30.9,252.5-63.3,378.3-97.1C1225,341.8,1226.3,347.2,1227.5,352.7z
				"/>
		</g>
		<g>
			<path d="M1235.1,392.2c-145.8,21.2-291.3,44-436.5,68.6c144.9-26.7,289.4-55.1,433.6-85.1c0.5,2.7,1.1,5.5,1.5,8.2L1235.1,392.2z
				"/>
		</g>
		<g>
			<path d="M1240.6,432c-131.6,11.5-263,24.5-394.3,39.1c131-17.1,261.8-35.6,392.3-55.7c0.4,2.8,0.7,5.5,1,8.3L1240.6,432z"/>
		</g>
		<g>
			<path d="M1243.8,472c-114.4,3.4-228.8,8.1-343.1,14.1c114.1-9,228.1-19.2,342-30.7L1243.8,472z"/>
		</g>
		<g>
			<path d="M1244.9,512c-85.9-2.8-171.7-4.6-257.6-5.4c85.8-2.8,171.6-6.5,257.4-11.2L1244.9,512z"/>
		</g>
	</g>
</g>
</svg>
